<svg t="1587519443664" class="icon" viewBox="0 0 1024 1024" version="1.1" xmlns="http://www.w3.org/2000/svg" p-id="6501" width="200" height="200"><path d="M512 433.005714c-41.545143 0-78.262857 34.596571-78.262857 78.994286 0 41.910857 34.230857 78.994286 78.262857 78.994286A77.531429 77.531429 0 0 0 590.262857 512c0-41.910857-34.304-78.994286-78.262857-78.994286zM512 0C229.668571 0 0 229.449143 0 512s229.668571 512 512 512c282.258286 0 512-229.449143 512-512 2.413714-282.550857-227.328-512-512-512z m232.155429 305.956571l-103.862858 318.317715a33.865143 33.865143 0 0 1-18.285714 18.505143l-318.902857 104.886857c-7.387429 2.413714-18.358857 2.413714-20.845714-2.486857a16.749714 16.749714 0 0 1-2.413715-20.992l103.862858-318.317715a33.865143 33.865143 0 0 1 18.285714-18.505143l318.902857-104.813714c7.314286-2.486857 18.358857-2.486857 20.845714 2.413714 4.827429 4.973714 8.557714 12.434286 2.413715 20.992z" p-id="6502"></path></svg>